{
	"asset":{
		"generator":"Khronos glTF Blender I/O v4.1.62",
		"version":"2.0"
	},
	"scene":0,
	"scenes":[
		{
			"name":"Scene",
			"nodes":[
				27
			]
		}
	],
	"nodes":[
		{
			"name":"head_end",
			"rotation":[
				2.5045221008213048e-08,
				0,
				0,
				1
			],
			"translation":[
				0,
				4.759761333465576,
				1.8223022379970644e-07
			]
		},
		{
			"children":[
				0
			],
			"name":"head",
			"rotation":[
				-2.5045221008213048e-08,
				0,
				0,
				1
			],
			"translation":[
				0,
				9.519524574279785,
				-1.0372662018198753e-07
			]
		},
		{
			"children":[
				1
			],
			"name":"neck",
			"rotation":[
				5.0292410236352225e-08,
				0,
				0,
				1
			],
			"translation":[
				0,
				1.9999992847442627,
				-1.2293185136513785e-08
			]
		},
		{
			"name":"arm_right_hand_end",
			"rotation":[
				1.0943040251731873e-07,
				-6.456684786826372e-08,
				1.919688656926155e-07,
				1
			],
			"translation":[
				4.3213367462158203e-07,
				3.4250919818878174,
				1.1920928955078125e-07
			]
		},
		{
			"children":[
				3
			],
			"name":"arm_right_hand",
			"rotation":[
				-5.605398456509647e-08,
				7.342897134776649e-08,
				-1.5750994464269752e-07,
				1
			],
			"scale":[
				0.9999999403953552,
				0.9999999403953552,
				0.9999999403953552
			],
			"translation":[
				2.0116567611694336e-07,
				6.850185871124268,
				3.5762786865234375e-07
			]
		},
		{
			"children":[
				4
			],
			"name":"arm_right_bot",
			"rotation":[
				0.09866760671138763,
				-0.09623778611421585,
				0.02006729319691658,
				0.9902526140213013
			],
			"translation":[
				-6.631016731262207e-07,
				9.206646919250488,
				-2.682209014892578e-07
			]
		},
		{
			"children":[
				5
			],
			"name":"arm_right_top",
			"rotation":[
				0.011813102290034294,
				-0.0115219596773386,
				0.0023964594583958387,
				0.999860942363739
			],
			"scale":[
				1,
				1,
				0.9999999403953552
			],
			"translation":[
				4.544854164123535e-07,
				1.9916859865188599,
				-8.940696716308594e-08
			]
		},
		{
			"children":[
				6
			],
			"name":"shoulder_right",
			"rotation":[
				-0.04302852228283882,
				-3.753457278321548e-08,
				0.6930965185165405,
				0.7195594310760498
			],
			"scale":[
				1,
				1,
				0.9999999403953552
			],
			"translation":[
				-5.878408432006836,
				0.7547718286514282,
				-1.6722548007965088
			]
		},
		{
			"name":"arm_left_hand_end",
			"rotation":[
				1.0803341865539551e-07,
				6.296613719314337e-08,
				-1.935986801981926e-07,
				1
			],
			"translation":[
				-8.195638656616211e-07,
				3.4250917434692383,
				-2.384185791015625e-07
			]
		},
		{
			"children":[
				8
			],
			"name":"arm_left_hand",
			"rotation":[
				-5.023321847374973e-08,
				-8.592906652893362e-08,
				1.6205014219394798e-07,
				1
			],
			"scale":[
				0.9999999403953552,
				0.9999999403953552,
				0.9999999403953552
			],
			"translation":[
				-3.427267074584961e-07,
				6.850185871124268,
				2.384185791015625e-07
			]
		},
		{
			"children":[
				9
			],
			"name":"arm_left_bot",
			"rotation":[
				0.09866760671138763,
				0.09623780101537704,
				-0.02006729692220688,
				0.9902526140213013
			],
			"translation":[
				6.966292858123779e-07,
				9.206646919250488,
				-2.086162567138672e-07
			]
		},
		{
			"children":[
				10
			],
			"name":"arm_left_top",
			"rotation":[
				0.011813096702098846,
				0.011521952226758003,
				-0.002396475290879607,
				0.999860942363739
			],
			"scale":[
				1,
				1,
				0.9999999403953552
			],
			"translation":[
				-2.682209014892578e-07,
				1.991684079170227,
				-8.940696716308594e-08
			]
		},
		{
			"children":[
				11
			],
			"name":"shoulder_left",
			"rotation":[
				-0.04302852228283882,
				3.753457278321548e-08,
				-0.6930965185165405,
				0.7195594310760498
			],
			"scale":[
				1,
				1,
				0.9999999403953552
			],
			"translation":[
				5.779660224914551,
				0.7547718286514282,
				-1.6722548007965088
			]
		},
		{
			"children":[
				2,
				7,
				12
			],
			"name":"body_top2",
			"rotation":[
				-8.10943490137106e-08,
				0,
				0,
				1
			],
			"translation":[
				0,
				3.8701882362365723,
				8.411821283971221e-08
			]
		},
		{
			"children":[
				13
			],
			"name":"body_top1",
			"rotation":[
				3.080193877735837e-08,
				0,
				0,
				1
			],
			"translation":[
				0,
				4.644224166870117,
				-7.352475961397431e-08
			]
		},
		{
			"children":[
				14
			],
			"name":"body_top0",
			"rotation":[
				1.3642420526593924e-12,
				0,
				0,
				1
			],
			"translation":[
				0,
				3.8701846599578857,
				5.2676512041216483e-08
			]
		},
		{
			"name":"leg_left_foot_end",
			"rotation":[
				1.8340937657512768e-08,
				0,
				0,
				1
			],
			"translation":[
				0,
				6.499629974365234,
				9.325265182269504e-08
			]
		},
		{
			"children":[
				16
			],
			"name":"leg_left_foot",
			"rotation":[
				-1.8340941210226447e-08,
				0,
				0,
				1
			],
			"scale":[
				1,
				0.9999999403953552,
				1
			],
			"translation":[
				0,
				8.536161422729492,
				3.548143467924092e-08
			]
		},
		{
			"children":[
				17
			],
			"name":"leg_left_bot",
			"rotation":[
				-1.3642420526593924e-12,
				0,
				0,
				1
			],
			"translation":[
				0,
				10.433087348937988,
				-3.5365019357413985e-08
			]
		},
		{
			"children":[
				18
			],
			"name":"leg_left_top",
			"rotation":[
				0,
				0,
				-1,
				0
			],
			"translation":[
				4.513972282409668,
				-2.6520092487335205,
				-0.41652509570121765
			]
		},
		{
			"name":"leg_right_foot_end",
			"rotation":[
				1.9232988535122786e-08,
				0,
				0,
				1
			],
			"translation":[
				0,
				6.19816780090332,
				-7.253800049511483e-08
			]
		},
		{
			"children":[
				20
			],
			"name":"leg_right_foot",
			"rotation":[
				-1.9232988535122786e-08,
				-5.371854364124803e-16,
				2.793042064297424e-08,
				1
			],
			"translation":[
				-1.308874431060758e-07,
				8.536162376403809,
				3.548143467924092e-08
			]
		},
		{
			"children":[
				21
			],
			"name":"leg_right_bot",
			"rotation":[
				-1.3642420526593924e-12,
				-3.8116482626443515e-20,
				-2.793042064297424e-08,
				1
			],
			"translation":[
				0,
				10.433087348937988,
				-3.5365019357413985e-08
			]
		},
		{
			"children":[
				22
			],
			"name":"leg_right_top",
			"rotation":[
				0,
				0,
				-1,
				0
			],
			"translation":[
				-4.612720489501953,
				-2.6520092487335205,
				-0.41652509570121765
			]
		},
		{
			"children":[
				15,
				19,
				23
			],
			"name":"body",
			"rotation":[
				-5.006464107282227e-06,
				0,
				0,
				1
			],
			"translation":[
				0,
				28.120885848999023,
				-0.0002816077321767807
			]
		},
		{
			"children":[
				24
			],
			"name":"root",
			"rotation":[
				-0.7071031928062439,
				0,
				0,
				0.7071103453636169
			],
			"translation":[
				0.0493742898106575,
				3.751220941543579,
				34.451210021972656
			]
		},
		{
			"mesh":0,
			"name":"vrfoxy",
			"skin":0
		},
		{
			"children":[
				26,
				25
			],
			"name":"rig",
			"rotation":[
				0.7071068286895752,
				0,
				0,
				0.7071068286895752
			]
		}
	],
	"materials":[
		{
			"doubleSided":true,
			"name":"tripo_mat_da35d4c8-f327-4dc7-82e2-593dc1f81b16.001",
			"normalTexture":{
				"index":0
			},
			"pbrMetallicRoughness":{
				"baseColorTexture":{
					"index":1
				},
				"metallicFactor":0,
				"roughnessFactor":0.5
			}
		}
	],
	"meshes":[
		{
			"name":"vrfoxy",
			"primitives":[
				{
					"attributes":{
						"POSITION":0,
						"NORMAL":1,
						"TEXCOORD_0":2,
						"JOINTS_0":3,
						"WEIGHTS_0":4
					},
					"indices":5,
					"material":0
				}
			]
		}
	],
	"textures":[
		{
			"sampler":0,
			"source":0
		},
		{
			"sampler":0,
			"source":1
		}
	],
	"images":[
		{
			"mimeType":"image/jpeg",
			"name":"vrfoxy_normal",
			"uri":"vrfoxy_normal.jpg"
		},
		{
			"mimeType":"image/jpeg",
			"name":"vrfoxy_basecolor",
			"uri":"vrfoxy_basecolor.jpg"
		}
	],
	"skins":[
		{
			"inverseBindMatrices":6,
			"joints":[
				25,
				24,
				15,
				14,
				13,
				2,
				1,
				0,
				7,
				6,
				5,
				4,
				3,
				12,
				11,
				10,
				9,
				8,
				19,
				18,
				17,
				16,
				23,
				22,
				21,
				20
			],
			"name":"rig"
		}
	],
	"accessors":[
		{
			"bufferView":0,
			"componentType":5126,
			"count":55082,
			"max":[
				32.34740447998047,
				34.58242416381836,
				16.624488830566406
			],
			"min":[
				-31.889469146728516,
				-34.451210021972656,
				-16.995100021362305
			],
			"type":"VEC3"
		},
		{
			"bufferView":1,
			"componentType":5126,
			"count":55082,
			"type":"VEC3"
		},
		{
			"bufferView":2,
			"componentType":5126,
			"count":55082,
			"type":"VEC2"
		},
		{
			"bufferView":3,
			"componentType":5121,
			"count":55082,
			"type":"VEC4"
		},
		{
			"bufferView":4,
			"componentType":5126,
			"count":55082,
			"type":"VEC4"
		},
		{
			"bufferView":5,
			"componentType":5123,
			"count":57210,
			"type":"SCALAR"
		},
		{
			"bufferView":6,
			"componentType":5126,
			"count":26,
			"type":"MAT4"
		}
	],
	"bufferViews":[
		{
			"buffer":0,
			"byteLength":660984,
			"byteOffset":0,
			"target":34962
		},
		{
			"buffer":0,
			"byteLength":660984,
			"byteOffset":660984,
			"target":34962
		},
		{
			"buffer":0,
			"byteLength":440656,
			"byteOffset":1321968,
			"target":34962
		},
		{
			"buffer":0,
			"byteLength":220328,
			"byteOffset":1762624,
			"target":34962
		},
		{
			"buffer":0,
			"byteLength":881312,
			"byteOffset":1982952,
			"target":34962
		},
		{
			"buffer":0,
			"byteLength":114420,
			"byteOffset":2864264,
			"target":34963
		},
		{
			"buffer":0,
			"byteLength":1664,
			"byteOffset":2978684
		}
	],
	"samplers":[
		{
			"magFilter":9729,
			"minFilter":9987
		}
	],
	"buffers":[
		{
			"byteLength":2980348,
			"uri":"vrfoxy.bin"
		}
	]
}
